<svg xmlns="http://www.w3.org/2000/svg" id="Ebene_1" width="240" height="22" data-name="Ebene 1" viewBox="0 0 857.767 79.542"><path d="M0 3.98h23c16.516 0 24.419 8.208 24.419 21.684s-8.106 22.29-25.635 22.29H7.802v28.979H0Zm7.802 6.891v30.397h13.78c12.158 0 18.035-5.473 18.035-15.401 0-9.93-5.168-14.996-17.124-14.996Zm83.186-8.207c18.642 0 32.22 12.665 32.22 36.983 0 26.748-13.982 38.501-32.728 38.501-18.946 0-32.828-11.955-32.828-38.501 0-24.318 13.983-36.983 33.336-36.983m-.305 68.493c14.692 0 24.318-10.03 24.318-31.51 0-19.354-9.829-29.79-24.318-29.79-15.097 0-24.723 10.64-24.723 29.79 0 21.277 9.829 31.51 24.723 31.51M128.781 3.98h7.904l16.718 63.023L169.918 3.98h7.7l16.618 63.124L210.548 3.98h8.005L199.2 76.934h-9.017L173.77 15.43l-16.415 61.502h-9.119Zm100.108 0h45.595v6.992H236.69V36.1h34.45v6.99h-34.45v26.953h38.603v6.89H228.89Zm82.982 0c17.125 0 24.825 8.106 24.825 20.975 0 9.118-3.75 16.211-12.26 20.264l16.414 31.714h-8.511l-15.503-29.89a36 36 0 0 1-7.8.709h-12.261v29.18h-7.802V3.982Zm-15.096 6.891v30.295h13.475c12.159 0 18.542-5.471 18.542-15.604 0-9.727-5.269-14.69-17.123-14.69Zm55.828-6.891h45.595v6.992h-37.794V36.1h34.45v6.99h-34.45v26.953h38.605v6.89h-46.406Zm80.45 0c23.202 0 35.867 11.552 35.867 36.578 0 25.837-12.766 36.375-36.982 36.375h-19.251V3.98Zm-12.563 7.094V69.84h13.07c19.15 0 27.154-10.132 27.154-29.282 0-18.947-8.004-29.484-27.155-29.484Zm83.082-7.094h24.824c16.212 0 22.9 6.586 22.9 17.935 0 7.092-3.749 15.097-13.376 16.515v.203c12.665 1.216 16.921 10.234 16.921 17.427 0 15.706-11.651 20.873-27.255 20.873h-24.014Zm7.802 6.789v25.23h14.084c9.423 0 17.833-2.635 17.833-13.273 0-8.917-6.08-11.957-16.314-11.957Zm0 59.375h18.34c11.45 0 17.123-5.674 17.123-14.489 0-9.828-7.396-12.867-18.135-12.867h-17.328Zm69.205-24.114L557.273 3.98h8.714l18.643 34.248 18.745-34.247h8.714L588.481 46.03v30.903h-7.902Zm159.455 25.372L776.238 0l16.054 8.14-36.203 71.402zm-41.766 0L734.468 0l16.053 8.14-36.2 71.4zm123.5-20.468h11.002c16.253 0 24.997-11.52 24.997-23.555S849.023 3.83 832.77 3.83h-29.007v73.227h18.005Zm0-30.962h10.186a7.417 7.417 0 1 1 0 14.814h-10.186ZM686.852 61.009h-30.744V3.829h-17.995v73.227h48.739z" style="fill:#1d1d1b"/></svg>