<svg id="Ebene_1" data-name="Ebene 1" xmlns="http://www.w3.org/2000/svg" width="240" height="22" viewBox="0 0 857.76698 79.542">
  <defs>
    <style>
      .cls-1 {
        fill: #1d1d1b;
      }
    </style>
  </defs>
  <title>powered-by-liip</title>
  <g>
    <path class="cls-1" d="M0,3.9805H23.0004c16.5152,0,24.4185,8.2075,24.4185,21.6836,0,13.4755-8.106,22.2905-25.6348,22.2905H7.8017v28.978H0Zm7.8017,6.8906V41.2676H21.5815c12.1587,0,18.0352-5.4722,18.0352-15.4009,0-9.9302-5.1675-14.9956-17.1236-14.9956Z"/>
    <path class="cls-1" d="M90.9878,2.6641c18.6425,0,32.2202,12.6645,32.2202,36.9824,0,26.7485-13.9825,38.5019-32.7276,38.5019-18.9467,0-32.8281-11.9555-32.8281-38.5019C57.6523,15.3286,71.6352,2.6641,90.9878,2.6641Zm-.3047,68.4931c14.6923,0,24.3178-10.0307,24.3178-31.5107,0-19.3531-9.8286-29.7891-24.3178-29.7891-15.0967,0-24.7227,10.6387-24.7227,29.7891C65.9604,60.9238,75.789,71.1572,90.6831,71.1572Z"/>
    <path class="cls-1" d="M128.7812,3.9805h7.9033l16.7183,63.0224,16.5156-63.0224h7.7002l16.6172,63.124,16.3125-63.124h8.0044l-19.3525,72.9521h-9.0171l-16.4146-61.5019L157.354,76.9326h-9.1187Z"/>
    <path class="cls-1" d="M228.88859,3.9805h45.5952v6.9917H236.6909V36.1001h34.44919v6.9907H236.6909V70.043h38.60349v6.8896h-46.4058Z"/>
    <path class="cls-1" d="M311.87109,3.9805c17.1245,0,24.8247,8.1059,24.8247,20.9741,0,9.1186-3.7491,16.2114-12.2598,20.2646l16.4136,31.7134h-8.5108l-15.5024-29.8901a35.95114,35.95114,0,0,1-7.8013.7094H296.7749V76.9326h-7.80231V3.9805ZM296.7749,10.8711V41.166h13.47549c12.1583,0,18.542-5.4712,18.542-15.604,0-9.7266-5.269-14.6909-17.123-14.6909Z"/>
    <path class="cls-1" d="M352.603,3.9805h45.5952v6.9917h-37.7939V36.1001H394.8549v6.9907H360.40429V70.043h38.6044v6.8896H352.603Z"/>
    <path class="cls-1" d="M433.05269,3.9805c23.2026,0,35.8677,11.5512,35.8677,36.5776,0,25.8369-12.7661,36.3745-36.98249,36.3745H412.687V3.9805Zm-12.563,7.0932V69.8403h13.0698c19.15041,0,27.1543-10.1323,27.1543-29.2822,0-18.9473-8.00389-29.4844-27.1543-29.4844Z"/>
    <path class="cls-1" d="M503.57169,3.9805H528.396c16.21191,0,22.8994,6.5859,22.8994,17.9345,0,7.0923-3.7481,15.0972-13.375,16.5152v.2031c12.665,1.2153,16.9209,10.2334,16.9209,17.4272,0,15.7051-11.65139,20.8721-27.2549,20.8721h-24.0147Zm7.8028,6.7885V35.9985h14.084c9.4228,0,17.833-2.6342,17.833-13.2729,0-8.917-6.0801-11.9566-16.3145-11.9566Zm0,59.3745h18.3388c11.4502,0,17.1241-5.6738,17.1241-14.4882,0-9.8282-7.39649-12.8677-18.1358-12.8677h-17.3271Z"/>
    <path class="cls-1" d="M580.57858,46.0298,557.2729,3.9805h8.71388l18.6435,34.2475,18.7451-34.2475h8.7139L588.4809,46.0298V76.9326h-7.90232Z"/>
  </g>
  <g>
    <rect class="cls-1" x="726.13513" y="30.77106" width="80.05581" height="17.99963" transform="translate(384.21274 705.12904) rotate(-63.11344)"/>
    <rect class="cls-1" x="684.36758" y="30.77126" width="80.05425" height="17.99923" transform="translate(361.35483 667.88827) rotate(-63.11542)"/>
    <path class="cls-1" d="M821.768,50.9336H832.77c16.25292,0,24.997-11.5205,24.997-23.5542,0-12.0342-8.74408-23.5503-24.997-23.5503h-29.0069V77.0557H821.768Zm0-30.9614h10.1856a7.41724,7.41724,0,1,1,0,14.8134H821.768Z"/>
    <polygon class="cls-1" points="686.852 61.009 656.108 61.009 656.108 3.829 638.113 3.829 638.113 77.056 686.852 77.056 686.852 61.009"/>
  </g>
</svg>
