<?xml version="1.0" encoding="utf-8"?>
<!-- Generator: Adobe Illustrator 19.1.0, SVG Export Plug-In . SVG Version: 6.00 Build 0)  -->
<svg version="1.1" id="Ebene_1" xmlns="http://www.w3.org/2000/svg" xmlns:xlink="http://www.w3.org/1999/xlink" x="0px" y="0px"
	 width="857.8px" height="79.5px" viewBox="0 0 857.8 79.5" style="enable-background:new 0 0 857.8 79.5;" xml:space="preserve">
<style type="text/css">
	.st0{fill:#FFFFFF;}
</style>
<g>
	<path class="st0" d="M0,4h23c16.5,0,24.4,8.2,24.4,21.7c0,13.5-8.1,22.3-25.6,22.3h-14v29H0V4z M7.8,10.9v30.4h13.8
		c12.2,0,18-5.5,18-15.4c0-9.9-5.2-15-17.1-15H7.8z"/>
	<path class="st0" d="M91,2.7c18.6,0,32.2,12.7,32.2,37c0,26.7-14,38.5-32.7,38.5c-18.9,0-32.8-12-32.8-38.5
		C57.7,15.3,71.6,2.7,91,2.7z M90.7,71.2c14.7,0,24.3-10,24.3-31.5c0-19.4-9.8-29.8-24.3-29.8C75.6,9.9,66,20.5,66,39.6
		C66,60.9,75.8,71.2,90.7,71.2z"/>
	<path class="st0" d="M128.8,4h7.9l16.7,63l16.5-63h7.7l16.6,63.1L210.5,4h8l-19.4,73h-9l-16.4-61.5l-16.4,61.5h-9.1L128.8,4z"/>
	<path class="st0" d="M228.9,4h45.6v7h-37.8v25.1h34.4v7h-34.4v27h38.6v6.9h-46.4V4z"/>
	<path class="st0" d="M311.9,4c17.1,0,24.8,8.1,24.8,21c0,9.1-3.7,16.2-12.3,20.3l16.4,31.7h-8.5L316.8,47c-2.3,0.5-4.8,0.7-7.8,0.7
		h-12.3v29.2H289V4H311.9z M296.8,10.9v30.3h13.5c12.2,0,18.5-5.5,18.5-15.6c0-9.7-5.3-14.7-17.1-14.7H296.8z"/>
	<path class="st0" d="M352.6,4h45.6v7h-37.8v25.1h34.5v7h-34.5v27H399v6.9h-46.4V4z"/>
	<path class="st0" d="M433.1,4c23.2,0,35.9,11.6,35.9,36.6c0,25.8-12.8,36.4-37,36.4h-19.3V4H433.1z M420.5,11.1v58.8h13.1
		c19.2,0,27.2-10.1,27.2-29.3c0-18.9-8-29.5-27.2-29.5H420.5z"/>
	<path class="st0" d="M503.6,4h24.8c16.2,0,22.9,6.6,22.9,17.9c0,7.1-3.7,15.1-13.4,16.5v0.2c12.7,1.2,16.9,10.2,16.9,17.4
		c0,15.7-11.7,20.9-27.3,20.9h-24V4z M511.4,10.8V36h14.1c9.4,0,17.8-2.6,17.8-13.3c0-8.9-6.1-12-16.3-12H511.4z M511.4,70.1h18.3
		c11.5,0,17.1-5.7,17.1-14.5c0-9.8-7.4-12.9-18.1-12.9h-17.3V70.1z"/>
	<path class="st0" d="M580.6,46L557.3,4h8.7l18.6,34.2L603.4,4h8.7l-23.6,42v30.9h-7.9V46z"/>
</g>
<g>
	
		<rect x="726.1" y="30.8" transform="matrix(-0.4522 0.8919 -0.8919 -0.4522 1148.1141 -625.5875)" class="st0" width="80.1" height="18"/>
	
		<rect x="715.4" y="-0.3" transform="matrix(0.8919 0.4522 -0.4522 0.8919 96.2774 -323.2696)" class="st0" width="18" height="80.1"/>
	<path class="st0" d="M821.8,50.9h11c16.3,0,25-11.5,25-23.6c0-12-8.7-23.6-25-23.6h-29v73.2h18V50.9z M821.8,20H832
		c4.9,0,7.8,3.6,7.8,7.4c0,3.8-2.9,7.4-7.8,7.4h-10.2V20z"/>
	<polygon class="st0" points="686.9,61 656.1,61 656.1,3.8 638.1,3.8 638.1,77.1 686.9,77.1 	"/>
</g>
</svg>
