<?xml version="1.0" encoding="utf-8"?>
<!-- Generator: Adobe Illustrator 19.1.0, SVG Export Plug-In . SVG Version: 6.00 Build 0)  -->
<svg version="1.1" id="Ebene_1" xmlns="http://www.w3.org/2000/svg" xmlns:xlink="http://www.w3.org/1999/xlink" x="0px" y="0px"
	 width="120px" height="120px" viewBox="0 0 120 120" style="enable-background:new 0 0 120 120;" xml:space="preserve">
<style type="text/css">
	.st0{fill:#EC1C25;}
</style>
<g>
	<path class="st0" d="M33.1,88.6l-2.3-1.1l13.2-26.8c0.2-0.4,0.6-0.7,1-0.7c0.4-0.1,0.9,0.2,1.1,0.5l9.8,13.7l16.5-28.9
		c0.2-0.4,0.7-0.7,1.2-0.6c0.5,0,0.9,0.4,1.1,0.9l14.6,42.1l-2.4,0.8L73.2,49L57.1,77.2c-0.2,0.4-0.6,0.6-1,0.6
		c-0.4,0-0.8-0.2-1.1-0.5l-9.7-13.6L33.1,88.6z"/>
	<path class="st0" d="M49.8,51.1c-3.5,0-6.4-2.9-6.4-6.4c0-3.5,2.9-6.4,6.4-6.4c3.5,0,6.4,2.9,6.4,6.4
		C56.2,48.2,53.3,51.1,49.8,51.1z M49.8,40.8c-2.1,0-3.8,1.7-3.8,3.8c0,2.1,1.7,3.8,3.8,3.8c2.1,0,3.8-1.7,3.8-3.8
		C53.6,42.6,51.9,40.8,49.8,40.8z"/>
	<path class="st0" d="M103.4,120H88.1c-0.7,0-1.3-0.6-1.3-1.3v-14H16.6c-0.7,0-1.3-0.6-1.3-1.3V33.2h-14c-0.7,0-1.3-0.6-1.3-1.3
		V16.6c0-0.7,0.6-1.3,1.3-1.3h14v-14c0-0.7,0.6-1.3,1.3-1.3h15.3c0.7,0,1.3,0.6,1.3,1.3v14h70.2c0.7,0,1.3,0.6,1.3,1.3v70.2h14
		c0.7,0,1.3,0.6,1.3,1.3v15.3c0,0.7-0.6,1.3-1.3,1.3h-14v14C104.7,119.4,104.1,120,103.4,120z M89.4,117.4h12.8v-14
		c0-0.7,0.6-1.3,1.3-1.3h14V89.4h-14c-0.7,0-1.3-0.6-1.3-1.3V17.9H31.9c-0.7,0-1.3-0.6-1.3-1.3v-14H17.9v14c0,0.7-0.6,1.3-1.3,1.3
		h-14v12.8h14c0.7,0,1.3,0.6,1.3,1.3v70.2h70.2c0.7,0,1.3,0.6,1.3,1.3V117.4z"/>
	<path class="st0" d="M88.1,89.4H31.9c-0.7,0-1.3-0.6-1.3-1.3V31.9c0-0.7,0.6-1.3,1.3-1.3h56.2c0.7,0,1.3,0.6,1.3,1.3v56.2
		C89.4,88.8,88.8,89.4,88.1,89.4z M33.2,86.8h53.6V33.2H33.2V86.8z"/>
</g>
</svg>
