<?xml version="1.0" encoding="utf-8"?>
<!-- Generator: Adobe Illustrator 19.1.0, SVG Export Plug-In . SVG Version: 6.00 Build 0)  -->
<svg version="1.1" id="Ebene_1" xmlns="http://www.w3.org/2000/svg" xmlns:xlink="http://www.w3.org/1999/xlink" x="0px" y="0px"
	 width="126px" height="120px" viewBox="0 0 126 120" style="enable-background:new 0 0 126 120;" xml:space="preserve">
<style type="text/css">
	.st0{fill:#EC1C25;}
</style>
<g>
	<path class="st0" d="M63,70.8c-0.3,0-0.6-0.1-0.8-0.2L31.4,50.7c-0.4-0.3-0.7-0.8-0.7-1.3V20c0-0.9,0.7-1.5,1.5-1.5
		c0.8,0,1.5,0.7,1.5,1.5v28.6L63,67.4l29.2-18.8V20c0-0.9,0.7-1.5,1.5-1.5c0.8,0,1.5,0.7,1.5,1.5v29.4c0,0.5-0.3,1-0.7,1.3
		L63.8,70.5C63.6,70.7,63.3,70.8,63,70.8z"/>
	<path class="st0" d="M63,40c-0.3,0-0.5-0.1-0.8-0.2L31.5,21.3C31,21,30.7,20.5,30.7,20s0.3-1,0.7-1.3L62.2,0.2
		c0.5-0.3,1.1-0.3,1.6,0l30.7,18.5c0.5,0.3,0.7,0.8,0.7,1.3s-0.3,1-0.7,1.3L63.8,39.8C63.5,39.9,63.3,40,63,40z M35.3,20L63,36.7
		L90.7,20L63,3.3L35.3,20z"/>
	<path class="st0" d="M63,70.8c-0.8,0-1.5-0.7-1.5-1.5V38.5c0-0.9,0.7-1.5,1.5-1.5c0.8,0,1.5,0.7,1.5,1.5v30.8
		C64.5,70.1,63.8,70.8,63,70.8z"/>
	<path class="st0" d="M93.7,120c-0.3,0-0.6-0.1-0.8-0.2L62.2,100c-0.4-0.3-0.7-0.8-0.7-1.3V69.2c0-0.9,0.7-1.5,1.5-1.5
		c0.8,0,1.5,0.7,1.5,1.5v28.6l29.2,18.8l29.2-18.8V69.2c0-0.9,0.7-1.5,1.5-1.5c0.8,0,1.5,0.7,1.5,1.5v29.4c0,0.5-0.3,1-0.7,1.3
		l-30.7,19.8C94.3,119.9,94,120,93.7,120z"/>
	<path class="st0" d="M93.7,89.2c-0.3,0-0.5-0.1-0.8-0.2L62.2,70.5c-0.5-0.3-0.7-0.8-0.7-1.3c0-0.5,0.3-1,0.7-1.3l30.7-19.8
		c0.5-0.3,1.2-0.3,1.7,0l30.7,19.8c0.4,0.3,0.7,0.8,0.7,1.3c0,0.5-0.3,1-0.7,1.3L94.5,89C94.3,89.2,94,89.2,93.7,89.2z M65.9,69.2
		l27.8,16.7l27.8-16.7L93.7,51.3L65.9,69.2z"/>
	<path class="st0" d="M93.7,120c-0.8,0-1.5-0.7-1.5-1.5V87.7c0-0.9,0.7-1.5,1.5-1.5c0.8,0,1.5,0.7,1.5,1.5v30.8
		C95.3,119.3,94.6,120,93.7,120z"/>
	<path class="st0" d="M32.3,120c-0.3,0-0.6-0.1-0.8-0.2L0.7,100C0.3,99.7,0,99.2,0,98.7V69.2c0-0.9,0.7-1.5,1.5-1.5
		c0.8,0,1.5,0.7,1.5,1.5v28.6l29.2,18.8l29.2-18.8V69.2c0-0.9,0.7-1.5,1.5-1.5c0.8,0,1.5,0.7,1.5,1.5v29.4c0,0.5-0.3,1-0.7,1.3
		l-30.7,19.8C32.8,119.9,32.6,120,32.3,120z"/>
	<path class="st0" d="M32.3,89.2c-0.3,0-0.5-0.1-0.8-0.2L0.7,70.5C0.3,70.3,0,69.8,0,69.3c0-0.5,0.3-1,0.7-1.3l30.7-19.8
		c0.5-0.3,1.2-0.3,1.7,0l30.7,19.8c0.4,0.3,0.7,0.8,0.7,1.3c0,0.5-0.3,1-0.7,1.3L33.1,89C32.8,89.2,32.5,89.2,32.3,89.2z M4.4,69.2
		l27.8,16.7l27.8-16.7L32.3,51.3L4.4,69.2z"/>
	<path class="st0" d="M32.3,120c-0.8,0-1.5-0.7-1.5-1.5V87.7c0-0.9,0.7-1.5,1.5-1.5c0.8,0,1.5,0.7,1.5,1.5v30.8
		C33.8,119.3,33.1,120,32.3,120z"/>
</g>
</svg>
