<?xml version="1.0" encoding="utf-8"?>
<!-- Generator: Adobe Illustrator 19.1.0, SVG Export Plug-In . SVG Version: 6.00 Build 0)  -->
<svg version="1.1" id="Ebene_1" xmlns="http://www.w3.org/2000/svg" xmlns:xlink="http://www.w3.org/1999/xlink" x="0px" y="0px"
	 width="120px" height="120px" viewBox="0 0 120 120" style="enable-background:new 0 0 120 120;" xml:space="preserve">
<style type="text/css">
	.st0{fill:#EC1C25;}
</style>
<g>
	<path class="st0" d="M60,120C26.9,120,0,93.1,0,60C0,26.9,26.9,0,60,0c33.1,0,60,26.9,60,60C120,93.1,93.1,120,60,120z M60,2.6
		C28.3,2.6,2.6,28.3,2.6,60s25.8,57.4,57.5,57.4c31.7,0,57.5-25.8,57.5-57.4S91.7,2.6,60,2.6z"/>
	<path class="st0" d="M43.3,15.6c-1.1-3.8-1.8-7.6-2.2-11.5l2.5-0.2c0.3,3.7,1,7.4,2.1,11L43.3,15.6z"/>
	<path class="st0" d="M88.8,57.5c-14.6-3-27.6-11.3-36.4-23.4l2.1-1.5C62.9,44.2,75.3,52.1,89.3,55L88.8,57.5z"/>
	<path class="st0" d="M109.8,58.1l-0.4-2.5c3.2-0.5,5.9-1.2,8.9-2.2l0.8,2.4C116,56.8,113.2,57.5,109.8,58.1z"/>
	<path class="st0" d="M46.2,118.6l-1.3-2.2c12-6.8,22.7-15.4,31.8-25.7l1.9,1.7C69.4,102.9,58.5,111.7,46.2,118.6z"/>
	<path class="st0" d="M88.3,80.3l-2.1-1.4c2.9-4.3,5.5-9.3,7.5-13.2l2.3,1.2C94,70.8,91.3,75.9,88.3,80.3z"/>
	<path class="st0" d="M103.9,47.9l-2.4-0.8c2.2-7.1,3.8-14.3,4.7-21.9l2.5,0.3C107.8,33.3,106.2,40.6,103.9,47.9z"/>
	<path class="st0" d="M17.8,84.7L16,84.3c-3.7-0.8-7.8-1.8-11.2-2.9L5.5,79c3.3,1,7.4,2,11,2.8l1.9,0.4L17.8,84.7z"/>
	<path class="st0" d="M52.1,89.4c-8.1-0.3-16.1-1.2-24.4-2.6l0.4-2.5c8.2,1.4,16,2.2,24.1,2.6L52.1,89.4z"/>
	<path class="st0" d="M67.7,89.5l-0.1-2.6c2.6-0.1,4.9-0.2,7.5-0.4l0.2,2.5C72.6,89.2,70.4,89.4,67.7,89.5z"/>
	<path class="st0" d="M90.4,87.4l-0.4-2.5c8.2-1.2,15.8-2.7,23.8-4.9l0.7,2.5C106.4,84.7,98.7,86.3,90.4,87.4z"/>
	<path class="st0" d="M37.5,24.6c-0.6-0.1-1.2-0.3-1.8-0.5c-5.6-1.5-10.8-3.9-15.7-6.9l1.3-2.2c4.6,2.9,9.7,5.1,15,6.6
		c0.6,0.2,1.1,0.3,1.7,0.4L37.5,24.6z"/>
	<path class="st0" d="M58.5,25.9l-0.3-2.5c11.6-1.3,23-6.4,31.9-14.2l1.7,1.9C82.5,19.3,70.7,24.6,58.5,25.9z"/>
	<path class="st0" d="M74.8,116.7c-1.9-5.8-5.8-13.2-11.4-22.1l2.1-1.4c5.8,9,9.7,16.6,11.7,22.6L74.8,116.7z"/>
	<path class="st0" d="M54.3,82.7c-4.7-4.7-11.8-11-17.7-14.7l1.3-2.2c6.1,3.8,13.4,10.2,18.2,15L54.3,82.7z"/>
	<path class="st0" d="M18.1,59.4c-5.8-2-11.1-3.4-16.7-4.1l0.4-2.5c5.7,0.8,11.2,2.2,17.2,4.3L18.1,59.4z"/>
	<path class="st0" d="M16.8,99.4l-2.1-1.5c1.7-2.4,3.6-5.5,5-8.2l2.3,1.2C20.5,93.6,18.5,96.9,16.8,99.4z"/>
	<path class="st0" d="M26,81.2l-2.4-0.7c0.6-2.1,1.3-4.9,1.8-8.2l2.5,0.4C27.3,76.1,26.7,79,26,81.2z"/>
	<path class="st0" d="M25.5,52.1c-1.6-10.3-5.9-20-12.3-28.2l2-1.6C21.9,30.9,26.3,41,28,51.7L25.5,52.1z"/>
	<path class="st0" d="M48.2,36.4c-6.3,0-11.5-5.2-11.5-11.5c0-6.3,5.2-11.5,11.5-11.5c6.3,0,11.5,5.2,11.5,11.5
		C59.7,31.2,54.5,36.4,48.2,36.4z M48.2,16c-4.9,0-8.9,4-8.9,8.9c0,4.9,4,8.9,8.9,8.9c4.9,0,8.9-4,8.9-8.9C57.1,20,53.1,16,48.2,16z
		"/>
	<path class="st0" d="M27.9,73.7c-6.3,0-11.5-5.2-11.5-11.5c0-6.3,5.2-11.5,11.5-11.5c6.3,0,11.5,5.2,11.5,11.5
		C39.4,68.6,34.2,73.7,27.9,73.7z M27.9,53.3c-4.9,0-8.9,4-8.9,8.9c0,4.9,4,8.9,8.9,8.9c4.9,0,8.9-4,8.9-8.9
		C36.8,57.3,32.8,53.3,27.9,53.3z"/>
	<path class="st0" d="M22.8,91.9c-3.5,0-6.4-2.9-6.4-6.4c0-3.5,2.9-6.4,6.4-6.4c3.5,0,6.4,2.9,6.4,6.4C29.2,89,26.3,91.9,22.8,91.9z
		 M22.8,81.7c-2.1,0-3.8,1.7-3.8,3.8c0,2.1,1.7,3.8,3.8,3.8c2.1,0,3.8-1.7,3.8-3.8C26.6,83.4,24.9,81.7,22.8,81.7z"/>
	<path class="st0" d="M60,96.7c-4.9,0-8.9-4-8.9-8.9c0-4.9,4-8.9,8.9-8.9c4.9,0,8.9,4,8.9,8.9C68.9,92.7,64.9,96.7,60,96.7z
		 M60,81.4c-3.5,0-6.4,2.9-6.4,6.4c0,3.5,2.9,6.4,6.4,6.4c3.5,0,6.4-2.9,6.4-6.4C66.4,84.2,63.5,81.4,60,81.4z"/>
	<path class="st0" d="M82.6,94.6c-4.9,0-8.9-4-8.9-8.9c0-4.9,4-8.9,8.9-8.9c4.9,0,8.9,4,8.9,8.9C91.5,90.6,87.5,94.6,82.6,94.6z
		 M82.6,79.3c-3.5,0-6.4,2.9-6.4,6.4s2.9,6.4,6.4,6.4c3.5,0,6.4-2.9,6.4-6.4S86.1,79.3,82.6,79.3z"/>
	<path class="st0" d="M99.4,68.6c-6.3,0-11.5-5.2-11.5-11.5c0-6.3,5.2-11.5,11.5-11.5c6.3,0,11.5,5.2,11.5,11.5
		C110.9,63.5,105.7,68.6,99.4,68.6z M99.4,48.2c-4.9,0-8.9,4-8.9,8.9c0,4.9,4,8.9,8.9,8.9c4.9,0,8.9-4,8.9-8.9
		C108.3,52.2,104.3,48.2,99.4,48.2z"/>
</g>
</svg>
