<svg xmlns="http://www.w3.org/2000/svg" width="24" height="24" viewBox="0 0 24 24"><g stroke="#000" stroke-linecap="round" stroke-linejoin="round" stroke-miterlimit="10" fill="none"><path d="M6.464 13.949s10.945-10.975 11.653-11.682c1.06-1.061 5.304-1.768 5.304-1.768s-.707 4.242-1.769 5.303c-1.414 1.415-11.667 11.668-11.667 11.668l-3.521-3.521zM7.875 12.526l3.525 3.53M15.289 12.168c0 .707 0 3.534-.354 4.595-.224.672-.93 1.637-1.415 2.122l-3.535 3.535.655-5.605M11.753 8.632c-.706 0-3.565-.03-4.625.323-.672.225-1.608.96-2.093 1.444l-3.535 3.536 5.641-.689M7.864 17.47c.708.707.413 1.709-.354 2.476-.976.976-5.657 2.136-5.657 2.136s1.146-4.695 2.122-5.672c.777-.776 1.769-1.061 2.476-.354"/></g></svg>